<svg fill="none" height="512" viewBox="0 0 24 24" width="512" xmlns="http://www.w3.org/2000/svg"><path clip-rule="evenodd" d="m17.8073 9.27166c-.8502-4.62636-7.1502-5.5809-9.27599-1.40197-1.96072-1.42755-4.7344-.47479-5.42257 1.82514-1.4664.15582-2.60874 1.39677-2.60874 2.90447v.14c0 1.6905 1.37044 3.061 3.06097 3.061h8.13003c-.1234.2784-.191.5849-.191.9033 0 1.1525.9342 2.0867 2.0867 2.0867h7.8279c1.1518 0 2.0854-.9337 2.0854-2.0854v-.3743c0-.8245-.5832-1.5128-1.3595-1.6749-.1465-.4439-.4152-.8037-.7523-1.0624.0729-.26.1118-.5342.1118-.8175 0-1.4572-.9689-2.7368-2.3716-3.13198zm-.9574.33852c-.5807-3.92595-5.9327-4.671-7.53106-1.06884-.19873.44787-.76336.59672-1.15678.30117l-.18707-.14053c-1.43798-1.08023-3.51204-.34093-3.94251 1.40532l-.0281.114c-.06617.2684-.30695.457-.58341.457-1.06092 0-1.92097.8601-1.92097 1.921v.14c0 1.1383.92273 2.061 2.06097 2.061h9.00593c.1512-.0925.3152-.1679.4897-.2232l.4896-.1553c.4145-2.7886 4.098-3.3466 5.4065-1.0217.4766-.2625 1.0107-.3286 1.5085-.2279.0255-.1282.0388-.2607.0388-.3964 0-1.0094-.6712-1.8957-1.6428-2.1694l-1.504-.4237c-.2672-.0753-.4631-.30086-.5033-.57252zm-2.3201 4.99842c.2567-1.9533 2.9545-2.2876 3.6812-.4443.1613.4094.678.5413 1.0155.2559.226-.191.4917-.2838.7552-.2916.3578-.0106.7114.1354.9555.4048.1268.1398.224.3129.277.5146l.0423.161c.0636.2419.2823.4106.5324.4106.3927 0 .7111.3183.7111.711v.3743c0 .5995-.4859 1.0854-1.0854 1.0854h-7.8279c-.6002 0-1.0867-.4865-1.0867-1.0867 0-.3509.1487-.6754.3947-.9033.1301-.1205.2873-.2139.4642-.27l.7223-.229c.226-.0717.3905-.2666.4234-.501l.0007-.0054z" fill="rgb(0,0,0)" fill-rule="evenodd"/></svg>