<svg fill="none" height="512" viewBox="0 0 24 24" width="512" xmlns="http://www.w3.org/2000/svg"><g clip-rule="evenodd" fill="rgb(0,0,0)" fill-rule="evenodd"><path d="m6.8.25c-1.93299 0-3.5 1.567-3.5 3.5v9.126c-1.51407 1.0892-2.499997 2.8665-2.499997 4.874 0 3.3137 2.686287 6 5.999997 6 3.3137 0 6-2.6863 6-6 0-2.0075-.9859-3.7848-2.5-4.874v-9.126c0-1.933-1.567-3.5-3.5-3.5zm0 1c-1.38071 0-2.5 1.11929-2.5 2.5v9.4382c0 .1428-.0768.2737-.19697.3508-.28945.1858-.5585.4006-.80303.6403-.92568.9074-1.5 2.172-1.5 3.5707 0 2.7614 2.23858 5 5 5 2.76143 0 5-2.2386 5-5 0-1.3987-.5743-2.6633-1.5-3.5707-.2445-.2397-.51357-.4545-.80302-.6403-.12017-.0771-.19698-.208-.19698-.3508v-9.4382c0-1.38071-1.11928-2.5-2.5-2.5z"/><path d="m6.46912 16.1066c.15042.2315.08462.5412-.14696.6916l-.11568.0752c-.41112.267-.59591.7739-.45314 1.2428l.03348.11c.08043.2642-.06853.5435-.3327.624-.26417.0804-.54352-.0686-.62395-.3327l-.03348-.11c-.27257-.8953.08022-1.863.86508-2.3728l.11568-.0751c.23158-.1504.54125-.0846.69167.147z"/><path d="m6.32216 16.7982c.23158-.1504.29738-.4601.14696-.6916-.15042-.2316-.46009-.2974-.69167-.147l-.11568.0751c-.78486.5098-1.13765 1.4775-.86508 2.3728l.03348.11c.08043.2641.35978.4131.62395.3327.26417-.0805.41313-.3598.3327-.624l-.03348-.11c-.14277-.4689.04202-.9758.45314-1.2428z"/><path d="m6.8 2.25c-.82842 0-1.5.67157-1.5 1.5v10.2908c-1.46591.5933-2.5 2.0305-2.5 3.7092 0 2.2091 1.79086 4 4 4s4-1.7909 4-4c0-1.6787-1.03408-3.1159-2.5-3.7092v-10.2908c0-.82843-.67157-1.5-1.5-1.5zm-.5 1.5c0-.27614.22386-.5.5-.5.27615 0 .5.22386.5.5v.75c-.27614 0-.5.22386-.5.5s.22386.5.5.5v1.5h-1zm.5 17c1.65686 0 3-1.3431 3-3 0-1.1104-.6033-2.0799-1.5-2.5987-.20875-.1207-.43341-.217-.67007-.285-.18778-.054-.32993-.2179-.32993-.4133v-6.453h-1v6.453c0 .1954-.14215.3593-.32993.4133-.23665.068-.46131.1643-.67007.285-.8967.5188-1.5 1.4883-1.5 2.5987 0 1.6569 1.34315 3 3 3zm-.47784-3.9518c.23158-.1504.29738-.4601.14696-.6916-.15042-.2316-.46009-.2974-.69167-.147l-.11568.0751c-.78486.5098-1.13765 1.4775-.86508 2.3728l.03348.11c.08043.2641.35978.4131.62395.3327.26417-.0805.41313-.3598.3327-.624l-.03348-.11c-.14277-.4689.04202-.9758.45314-1.2428z"/><path d="m14.7122 8.36497c.1375-1.74142 2.5588-2.11438 3.2109-.46013.1579.40045.659.51625.979.24575.5874-.49668 1.4821-.12435 1.5492.61521l.0049.05393c.0262.28857.2682.50954.5579.50954.6506 0 1.1859.53799 1.1859 1.19733 0 .5365-.4357.9734-.9634.9734h-7.4458c-.6025 0-1.0908-.4883-1.0908-1.0907 0-.53596.3455-1.01075.8555-1.17555l.7245-.23413c.2373-.0767.4049-.28894.4246-.53758zm-.98-.23925c.3343-2.53349 3.6901-3.08852 4.9206-1.00022 1.0741-.53412 2.4369.04047 2.7411 1.23695 1.0291.18197 1.8061 1.09003 1.8061 2.16415 0 1.0799-.8746 1.9734-1.9634 1.9734h-7.4458c-1.1547 0-2.0908-.9361-2.0908-2.0907 0-.96977.6252-1.82889 1.548-2.12709z"/></g></svg>