<svg fill="none" height="512" viewBox="0 0 24 24" width="512" xmlns="http://www.w3.org/2000/svg"><g clip-rule="evenodd" fill="rgb(0,0,0)" fill-rule="evenodd"><path d="m19.9378 1.63296c-.3221-.87062-1.5535-.870617-1.8757 0l-.5316 1.43676-1.4368.53165c-.8706.32216-.8706 1.55355 0 1.87571l1.4368.53165.5316 1.43676c.3222.87062 1.5536.87062 1.8757 0l.5317-1.43676 1.4368-.53165c.8706-.32216.8706-1.55355 0-1.87571l-1.4368-.53165zm-.9378.34704.5316 1.43676c.1013.27372.3171.48953.5909.59081l1.4367.53166-1.4367.53165c-.2738.10128-.4896.31709-.5909.59081l-.5316 1.43676-.5317-1.43676c-.1012-.27372-.317-.48953-.5908-.59081l-1.4367-.53165 1.4367-.53166c.2737-.10128.4896-.31709.5908-.59081z"/><path d="m12 2.01999c-5.79899 0-10.5 4.70101-10.5 10.50001 0 1.9166.51351 3.7133 1.41046 5.2599l-.81673.3022c-.87062.3222-.87062 1.5536 0 1.8757l1.07181.3967.3966 1.0718c.32216.8706 1.55355.8706 1.87571 0l.20347-.5499c1.76483 1.345 3.96849 2.1436 6.35868 2.1436 5.799 0 10.5-4.701 10.5-10.5 0-.1937-.0781-.3708-.2144-.4971-.1279-.1185-.2837-.172-.4233-.1836-.2685-.0223-.6203.1109-.7482.479-.9512 2.7378-3.554 4.7017-6.6141 4.7017-3.866 0-7-3.134-7-7 0-3.06016 1.96394-5.6629 4.7017-6.6141.3681-.12791.5013-.47968.479-.74818-.0116-.13962-.0651-.29544-.1836-.4233-.1263-.13632-.3034-.21443-.4971-.21443zm-1.6115 1.13613c-4.47919.76536-7.8885 4.66647-7.8885 9.36388 0 1.5291.36125 2.9738 1.00306 4.2534l.05908-.1597c.32216-.8706 1.55355-.8706 1.87571 0l.3966 1.0718 1.07181.3966c.87062.3222.87062 1.5536 0 1.8757l-.55114.204c1.57821 1.1677 3.53091 1.8582 5.64488 1.8582 4.6974 0 8.5985-3.4093 9.3639-7.8885-1.3982 2.3292-3.9485 3.8885-6.8639 3.8885-4.4183 0-8-3.5817-8-8 0-2.9154 1.55928-5.46571 3.8885-6.86388zm-5.88851 13.80468.39661 1.0718c.10129.2737.3171.4895.59081.5908l1.07181.3966-1.0718.3966-.01497.0057c-.26661.1035-.47642.3164-.57585.5851l-.06755.1826-.32906.8892-.3966-1.0718c-.10129-.2737-.3171-.4895-.59082-.5908l-1.0718-.3966 1.02636-.3798.04544-.0168c.27372-.1013.48953-.3171.59082-.5908l.0549-.1484z"/></g></svg>