<svg fill="none" height="512" viewBox="0 0 24 24" width="512" xmlns="http://www.w3.org/2000/svg"><g clip-rule="evenodd" fill="rgb(0,0,0)" fill-rule="evenodd"><path d="m17.4108 9.8c.9941 0 1.8-.80589 1.8-1.8 0-.99412-.8059-1.8-1.8-1.8-.9942 0-1.8.80588-1.8 1.8 0 .99411.8058 1.8 1.8 1.8zm0 1c1.5464 0 2.8-1.25361 2.8-2.8 0-1.5464-1.2536-2.8-2.8-2.8s-2.8 1.2536-2.8 2.8c0 1.54639 1.2536 2.8 2.8 2.8z"/><path d="m16.9241 2.77516c.2713-.26252.702-.26252.9734 0l.9213.89131 1.2693-.17953c.3738-.05288.7223.20026.7875.57216l.2215 1.26263 1.1324.60082c.3335.17696.4666.58656.3008.92577l-.563 1.15168.563 1.15168c.1658.33921.0327.7488-.3008.92572l-1.1324.6009-.2215 1.2626c-.0652.3719-.4137.625-.7875.5722l-1.2693-.1796-.9213.8913c-.2714.2626-.7021.2626-.9734 0l-.9214-.8913-1.2693.1796c-.3738.0528-.7222-.2003-.7875-.5722l-.2215-1.2626-1.1324-.6009c-.3335-.17692-.4666-.58651-.3008-.92572l.563-1.15168-.563-1.15168c-.1658-.33921-.0327-.74881.3008-.92577l1.1324-.60082.2215-1.26263c.0653-.3719.4137-.62504.7875-.57216l1.2693.17953zm.4867.92052-.8182.79148c-.1552.15012-.3709.22023-.5847.18999l-1.1272-.15942-.1966 1.12122c-.0373.21267-.1707.39622-.3614.49741l-1.0056.53353.4999 1.02269c.0948.19398.0948.42086 0 .61484l-.4999 1.02269 1.0056.53353c.1907.10119.3241.28476.3614.49736l.1966 1.1213 1.1272-.1595c.2138-.0302.4295.0399.5847.19l.8182.7915.8181-.7915c.1552-.1501.371-.2202.5848-.19l1.1271.1595.1967-1.1213c.0373-.2126.1706-.39617.3613-.49736l1.0056-.53353-.4999-1.02269c-.0948-.19398-.0948-.42086 0-.61484l.4999-1.02269-1.0056-.53353c-.1907-.10119-.324-.28474-.3613-.49741l-.1967-1.12122-1.1271.15942c-.2138.03024-.4296-.03987-.5848-.18999z"/><path d="m7.39999.25c-1.93299 0-3.5 1.567-3.5 3.5v9.126c-1.51406 1.0892-2.5 2.8665-2.5 4.874 0 3.3137 2.6863 6 6 6 3.31371 0 6.00001-2.6863 6.00001-6 0-2.0075-.9859-3.7848-2.5-4.874v-9.126c0-1.933-1.56701-3.5-3.50001-3.5zm0 1c-1.38071 0-2.5 1.11929-2.5 2.5v9.4382c0 .1428-.0768.2737-.19697.3508-.28945.1858-.5585.4006-.80303.6403-.92568.9074-1.5 2.172-1.5 3.5707 0 2.7614 2.23858 5 5 5 2.76141 0 5.00001-2.2386 5.00001-5 0-1.3987-.5743-2.6633-1.5-3.5707-.2445-.2397-.5136-.4545-.803-.6403-.1202-.0771-.19701-.208-.19701-.3508v-9.4382c0-1.38071-1.11928-2.5-2.5-2.5z"/><path d="m7.06911 16.1066c.15042.2315.08462.5412-.14696.6916l-.11568.0752c-.41112.267-.59591.7739-.45314 1.2428l.03349.11c.08042.2642-.06854.5435-.33271.624-.26417.0804-.54352-.0686-.62395-.3327l-.03348-.11c-.27257-.8953.08022-1.863.86508-2.3728l.11568-.0751c.23158-.1504.54125-.0846.69167.147z"/><path d="m6.92215 16.7982c.23158-.1504.29738-.4601.14696-.6916-.15042-.2316-.46009-.2974-.69167-.147l-.11568.0751c-.78486.5098-1.13765 1.4775-.86508 2.3728l.03348.11c.08043.2641.35978.4131.62395.3327.26417-.0805.41313-.3598.33271-.624l-.03349-.11c-.14277-.4689.04202-.9758.45314-1.2428z"/><path d="m7.39999 2.25c-.82842 0-1.5.67157-1.5 1.5v3.75 6.5408c-1.46591.5933-2.5 2.0305-2.5 3.7092 0 2.2091 1.79087 4 4 4 2.20914 0 4.00001-1.7909 4.00001-4 0-1.6787-1.0341-3.1159-2.50001-3.7092v-6.5408-3.75c0-.82843-.67157-1.5-1.5-1.5zm-.5 1.5c0-.27614.22386-.5.5-.5.27615 0 .5.22386.5.5v.75c-.27614 0-.5.22386-.5.5s.22386.5.5.5v1.5h-1zm.5 17c1.65686 0 3.00001-1.3431 3.00001-3 0-1.1104-.6033-2.0799-1.50001-2.5987-.20875-.1207-.43341-.217-.67007-.285-.18777-.054-.32993-.2179-.32993-.4133v-6.453h-1v6.453c0 .1954-.14215.3593-.32993.4133-.23665.068-.46131.1643-.67007.285-.8967.5188-1.5 1.4883-1.5 2.5987 0 1.6569 1.34315 3 3 3zm-.47784-3.9518c.23158-.1504.29738-.4601.14696-.6916-.15042-.2316-.46009-.2974-.69167-.147l-.11568.0751c-.78486.5098-1.13765 1.4775-.86508 2.3728l.03348.11c.08043.2641.35978.4131.62395.3327.26417-.0805.41313-.3598.33271-.624l-.03349-.11c-.14277-.4689.04202-.9758.45314-1.2428z"/></g></svg>