<svg fill="none" height="512" viewBox="0 0 24 24" width="512" xmlns="http://www.w3.org/2000/svg"><g fill="rgb(0,0,0)"><g clip-rule="evenodd" fill-rule="evenodd"><path d="m7.49999 11.7792c.82843 0 1.5-.6715 1.5-1.5 0-.8284-.67157-1.49997-1.5-1.49997-.82842 0-1.5.67157-1.5 1.49997 0 .8285.67158 1.5 1.5 1.5zm0 1c1.38072 0 2.50001-1.1193 2.50001-2.5 0-1.38068-1.11929-2.49997-2.50001-2.49997-1.38071 0-2.5 1.11929-2.5 2.49997 0 1.3807 1.11929 2.5 2.5 2.5z"/><path d="m14.75 9.27923c.4142 0 .75-.33579.75-.75s-.3358-.75-.75-.75-.75.33579-.75.75.3358.75.75.75zm0 .99997c.9665 0 1.75-.78347 1.75-1.74997s-.7835-1.75-1.75-1.75-1.75.7835-1.75 1.75.7835 1.74997 1.75 1.74997z"/><path d="m15.5 16.7792c.2761 0 .5-.2238.5-.5 0-.2761-.2239-.5-.5-.5s-.5.2239-.5.5c0 .2762.2239.5.5.5zm0 1c.8284 0 1.5-.6715 1.5-1.5 0-.8284-.6716-1.5-1.5-1.5s-1.5.6716-1.5 1.5c0 .8285.6716 1.5 1.5 1.5z"/></g><path d="m6.99999 15.2792c0 .2762-.22385.5-.5.5-.27614 0-.5-.2238-.5-.5 0-.2761.22386-.5.5-.5.27615 0 .5.2239.5.5z"/><path d="m13 18.2792c0 .2762-.2239.5-.5.5s-.5-.2238-.5-.5c0-.2761.2239-.5.5-.5s.5.2239.5.5z"/><path d="m19 14.2792c0 .2762-.2239.5-.5.5s-.5-.2238-.5-.5c0-.2761.2239-.5.5-.5s.5.2239.5.5z"/><path clip-rule="evenodd" d="m12 2.77923c5.5228 0 10 4.47715 10 9.99997 0 1.7729-.4613 3.438-1.2705 4.8819l.105.2837 1.0718.3966c.8706.3221.8706 1.5535 0 1.8757l-1.0718.3966-.3967 1.0718c-.3221.8706-1.5535.8706-1.8757 0l-.3853-1.0414c-1.7006 1.3374-3.8455 2.1351-6.1768 2.1351-.7358 0-1.453-.0794-2.14355-.2302-.56679-.1238-1.11561-.2957-1.64197-.5111-.06761-.0277-.13485-.0561-.2017-.0852-.52943-.2304-1.03503-.5053-1.51208-.82-2.71151-1.7887-4.50071-4.8621-4.50071-8.3535 0-2.141.67287-4.1249 1.81867-5.75171l-.28817-.77876-1.43676-.53165c-.87062-.32216-.87062-1.55354 0-1.8757l1.43676-.53165.53165-1.43677c.32216-.87061 1.55355-.87061 1.87571.00001l.53165 1.43676 1.21082.44804c1.30755-.62722 2.77258-.97854 4.31968-.97854zm-2.5 18.29997c0-.5523-.44772-1-1.00001-1-.39251 0-.73221.2262-.8959.5553.57689.3235 1.19306.5853 1.83955.7765.0365-.1038.05636-.2155.05636-.3318zm1 0c0-1.1045-.89544-2-2.00001-2-.74715 0-1.39861.4097-1.74198 1.0167-2.27564-1.6332-3.75802-4.3018-3.75802-7.3167 0-1.7224.48385-3.33178 1.32304-4.69968.48606.44675 1.3523.31541 1.61482-.39402l.53165-1.43677 1.43676-.53165c.54901-.20315.75181-.76786.60842-1.23813 1.07196-.45066 2.24952-.69972 3.48532-.69972 4.9706 0 9 4.02944 9 8.99997 0 1.3264-.2869 2.5858-.8021 3.7195-.4818-.4702-1.3694-.3455-1.6358.3743l-.3966 1.0718-1.0718.3966c-.8652.3202-.8706 1.5384-.0159 1.8696-1.4454.9895-3.194 1.5682-5.0778 1.5682-.539 0-1.067-.0474-1.58-.1382.0521-.1782.08-.3667.08-.5618zm-5.5-18.8592-.53166 1.43676c-.10128.27372-.31709.48953-.59081.59082l-1.43676.53165 1.43676.53165c.27372.10129.48953.3171.59081.59082l.07801.21081.39883 1.07781.05481.14814.0723-.19537.07229-.19537.38707-1.04602c.10128-.27372.31709-.48953.59081-.59082l1.43676-.53165-1.02126-.3779-.4155-.15375c-.27372-.10128-.48953-.3171-.59081-.59081zm14.5 15-.3966 1.0718c-.0036.0097-.0073.0194-.0112.0289-.0795.196-.2185.3603-.3952.4712-.0577.0362-.1194.0667-.1844.0907l-1.0718.3966.5603.2074.5115.1892c.1685.0624.315.1682.4264.3041.0696.0849.1255.1815.1644.2868l.3966 1.0718.3966-1.0718c.1013-.2738.3171-.4896.5908-.5909l1.0718-.3966-1.0718-.3966c-.1454-.0538-.2745-.1399-.3787-.2499-.092-.097-.1646-.2126-.2121-.3409l-.2705-.731z" fill-rule="evenodd"/></g></svg>