<svg fill="none" height="512" viewBox="0 0 24 24" width="512" xmlns="http://www.w3.org/2000/svg"><g clip-rule="evenodd" fill="rgb(0,0,0)" fill-rule="evenodd"><path d="m9.75 15c.2761 0 .5.2239.5.5v1c0 .2761-.2239.5-.5.5-.27614 0-.5-.2239-.5-.5v-1c0-.2761.22386-.5.5-.5z"/><path d="m9.75 18.5c.2761 0 .5.2239.5.5v2c0 .2761-.2239.5-.5.5-.27614 0-.5-.2239-.5-.5v-2c0-.2761.22386-.5.5-.5z"/><path d="m14.25 15c.2761 0 .5.2239.5.5v4c0 .2761-.2239.5-.5.5s-.5-.2239-.5-.5v-4c0-.2761.2239-.5.5-.5z"/><path d="m5.25 15c.27614 0 .5.2239.5.5v4c0 .2761-.22386.5-.5.5s-.5-.2239-.5-.5v-4c0-.2761.22386-.5.5-.5z"/><path d="m18.75 15c.2761 0 .5.2239.5.5v2c0 .2761-.2239.5-.5.5s-.5-.2239-.5-.5v-2c0-.2761.2239-.5.5-.5z"/><path d="m18.75 19.5c.2761 0 .5.2239.5.5v1c0 .2761-.2239.5-.5.5s-.5-.2239-.5-.5v-1c0-.2761.2239-.5.5-.5z"/><path d="m17.8499 6.90019c-.5807-3.92595-5.9327-4.67101-7.5311-1.06885-.1987.44787-.76332.59672-1.15674.30118l-.18707-.14053c-1.43798-1.08024-3.51204-.34094-3.94251 1.40531l-.0281.11398c-.06617.26842-.30695.45706-.58341.45706-1.06092 0-1.92097.86005-1.92097 1.92097v.13999c0 1.1383.92273 2.061 2.06097 2.061h14.91463c1.118 0 2.0244-.9064 2.0244-2.0245 0-1.00939-.6712-1.89573-1.6428-2.16944l-1.504-.4237c-.2672-.07527-.4631-.30082-.5033-.57247zm.9574-.33852c-.8502-4.62637-7.1502-5.580908-9.27599-1.40198-1.96072-1.42755-4.7344-.47479-5.42257 1.82514-1.4664.15583-2.60874 1.39675-2.60874 2.90448v.13999c0 1.6905 1.37044 3.061 3.06097 3.061h14.91463c1.6703 0 3.0244-1.3541 3.0244-3.0245 0-1.45724-.9689-2.73683-2.3716-3.13198z"/></g></svg>