<svg fill="none" height="512" viewBox="0 0 24 24" width="512" xmlns="http://www.w3.org/2000/svg"><path clip-rule="evenodd" d="m22.9888 18.25h.5008c.2795 0 .5104-.2205.5104-.5 0-.1675-.0034-.3342-.0102-.5-.2622-6.3955-5.5299-11.5-11.9898-11.5-6.45993 0-11.727643 5.1045-11.9897722 11.5-.00679636.1658-.0102278.3325-.0102278.5 0 .2795.230895.5.510367.5h.500793 2.00249 1.00172 2.00517 1.00415 2.01679 1.02152 3.874 1.0215 2.0168 1.0042 2.0051 1.0017zm-3.0042-1c-.2581-4.1854-3.7342-7.5-7.9846-7.5-4.25035 0-7.72653 3.3146-7.98463 7.5h2.00517c.25407-3.0798 2.83413-5.5 5.97946-5.5 3.1453 0 5.7254 2.4202 5.9795 5.5zm-7.9846-8.5c4.8028 0 8.7269 3.762 8.9863 8.5h2.0025c-.2614-5.8431-5.0812-10.5-10.9888-10.5-5.90756 0-10.72744 4.6569-10.98884 10.5h2.00249c.25945-4.738 4.18357-8.5 8.98635-8.5zm4.9742 8.4888.0011.0112h-2.0168c-.238-1.4189-1.472-2.5-2.9585-2.5s-2.72048 1.0811-2.95852 2.5h-2.01679c.25086-2.5267 2.38264-4.5 4.97531-4.5 2.5888 0 4.7181 1.9675 4.9742 4.4888zm-3.0641-.0835c.0097.0312.0187.0628.0269.0947h-3.874c.222-.8626 1.0051-1.5 1.937-1.5.8975 0 1.6569.5911 1.9101 1.4053z" fill="rgb(0,0,0)" fill-rule="evenodd"/></svg>