<svg fill="none" height="512" viewBox="0 0 24 24" width="512" xmlns="http://www.w3.org/2000/svg"><path clip-rule="evenodd" d="m10.1677 12.4528c.9461-1.1274 2.2815-1.6722 3.6241-1.6922-.3273-.6583-1.0067-1.1106-1.7918-1.1106-1.1046 0-2 .8954-2 2 0 .2855.0598.5571.1677.8028zm-7.1677-.8028c0 1.2997.2755 2.5351.77129 3.6509-1.30051.2953-2.27129 1.4585-2.27129 2.8484v.14c0 1.6905 1.37044 3.061 3.06097 3.061h14.91463c1.6703 0 3.0244-1.3541 3.0244-3.0244 0-1.4119-.9094-2.6569-2.2416-3.0925.4771-1.0981.7416-2.3098.7416-3.5834 0-4.97056-4.0294-9-9-9-4.97056 0-9 4.02944-9 9zm6.16206 2.7425-.18707-.1405c-.46432-.3488-.99496-.5079-1.51516-.5047-.34505.0022-.6855.0758-.99898.2128-.66339.29-1.20594.8641-1.41539 1.6467-.00448.0168-.00881.0336-.01298.0505l-.0281.114c-.06617.2684-.30695.457-.58341.457-.05621 0-.11186.0025-.16685.0072-.9828.0846-1.75412.9091-1.75412 1.9138v.14c0 1.1383.92273 2.061 2.06097 2.061h5.12711 4.62382 5.1637c1.118 0 2.0244-.9064 2.0244-2.0244 0-1.0095-.6712-1.8958-1.6428-2.1695l-.0558-.0158-.9973-.2809-.4509-.127c-.2672-.0753-.4631-.3009-.5033-.5725-.0616-.4166-.1769-.7974-.3358-1.1409-.1808-.391-.418-.7338-.6965-1.0263-.5039-.5291-1.1431-.8939-1.8288-1.0822-.3234-.0888-.6572-.1383-.992-.1473-1.1884-.0319-2.3897.447-3.1873 1.4937-.1878.2464-.3531.5242-.4907.8341-.0049.0113-.0101.0223-.0156.0331-.2112.422-.75756.5563-1.14114.2681zm2.83794-10.7425c4.4183 0 8 3.58172 8 8 0 1.1792-.2551 2.2989-.7132 3.3067l-.4795-.135c-.1497-.8148-.4685-1.5156-.9037-2.0946.0633-.3495.0964-.7094.0964-1.0771 0-3.31371-2.6863-6-6-6-3.31371 0-6 2.68629-6 6 0 .4659.05309.9193.15355 1.3546-.67459.2721-1.26709.7512-1.66737 1.3981-.31452-.8583-.48618-1.7854-.48618-2.7527 0-4.41828 3.58172-8 8-8zm5 8c0-2.76142-2.2386-5-5-5-2.76142 0-5 2.23858-5 5 0 .3831.04308.7561.12466 1.1145.8143-.0825 1.66814.1175 2.40665.6552l.01915-.0373c-.3467-.4893-.55046-1.0871-.55046-1.7324 0-1.65685 1.3431-3 3-3 1.3843 0 2.5496.93757 2.8955 2.2123.7572.1522 1.482.4723 2.1019.9494.0017-.0537.0026-.1076.0026-.1617z" fill="rgb(0,0,0)" fill-rule="evenodd"/></svg>