<svg fill="none" height="512" viewBox="0 0 24 24" width="512" xmlns="http://www.w3.org/2000/svg"><g clip-rule="evenodd" fill="rgb(0,0,0)" fill-rule="evenodd"><path d="m17.8499 5.40019c-.5807-3.92595-5.9327-4.671011-7.5311-1.06885-.1987.44787-.76332.59672-1.15674.30118l-.18707-.14053c-1.43798-1.08024-3.51204-.34094-3.94251 1.40531l-.0281.11398c-.06617.26842-.30695.45706-.58341.45706-1.06092 0-1.92097.86005-1.92097 1.92097v.14c0 1.13825.92273 2.06099 2.06097 2.06099h14.91463c1.118 0 2.0244-.90638 2.0244-2.02445 0-1.00944-.6712-1.89578-1.6428-2.16949l-1.504-.4237c-.2672-.07527-.4631-.30082-.5033-.57247zm.9574-.33852c-.8502-4.626368-7.1502-5.580908-9.27599-1.40198-1.96072-1.42755-4.7344-.47479-5.42257 1.82514-1.4664.15583-2.60874 1.39675-2.60874 2.90448v.14c0 1.69049 1.37044 3.06099 3.06097 3.06099h14.91463c1.6703 0 3.0244-1.3541 3.0244-3.02445 0-1.45729-.9689-2.73688-2.3716-3.13203z"/><path d="m7 13.5c0-.2761-.22386-.5-.5-.5s-.5.2239-.5.5v1.2929l-.14645-.1465c-.19526-.1952-.51184-.1952-.7071 0-.19527.1953-.19527.5119 0 .7072l.14644.1464h-1.29289c-.27614 0-.5.2239-.5.5s.22386.5.5.5h1.29289l-.14644.1464c-.19527.1953-.19527.5119 0 .7072.19526.1952.51184.1952.7071 0l.14645-.1465v1.2929c0 .2761.22386.5.5.5s.5-.2239.5-.5v-1.2929l.14645.1465c.19526.1952.51184.1952.7071 0 .19527-.1953.19527-.5119 0-.7072l-.14644-.1464h1.29289c.27614 0 .5-.2239.5-.5s-.22386-.5-.5-.5h-1.29289l.14644-.1464c.19527-.1953.19527-.5119 0-.7072-.19526-.1952-.51184-.1952-.7071 0l-.14645.1465zm-.5 3c.27614 0 .5-.2239.5-.5s-.22386-.5-.5-.5-.5.2239-.5.5.22386.5.5.5z"/><path d="m15.5 13.5c0-.2761-.2239-.5-.5-.5s-.5.2239-.5.5v.1744c-.1947-.1337-.4631-.1141-.6362.059-.1952.1953-.1952.5118 0 .7071l.6362.6362v1.7162l-1.4943-1.4943c-.1952-.1952-.5118-.1952-.7071 0-.1952.1953-.1952.5119 0 .7071l1.4943 1.4943h-1.7162l-.6362-.6362c-.1953-.1952-.5118-.1952-.7071 0-.1731.1731-.1927.4415-.059.6362h-.1744c-.2761 0-.5.2239-.5.5s.2239.5.5.5h.1744c-.1337.1947-.1141.4631.059.6362.1953.1952.5118.1952.7071 0l.6362-.6362h1.7162l-1.4943 1.4943c-.1952.1952-.1952.5118 0 .7071.1953.1952.5119.1952.7071 0l1.4943-1.4943v1.7162l-.6362.6362c-.1952.1953-.1952.5118 0 .7071.1731.1731.4415.1927.6362.059v.1744c0 .2761.2239.5.5.5s.5-.2239.5-.5v-.1744c.1947.1337.4631.1141.6362-.059.1952-.1953.1952-.5118 0-.7071l-.6362-.6362v-1.7162l1.4943 1.4943c.1952.1952.5118.1952.7071 0 .1952-.1953.1952-.5119 0-.7071l-1.4943-1.4943h1.7162l.6362.6362c.1953.1952.5118.1952.7071 0 .1731-.1731.1927-.4415.059-.6362h.1744c.2761 0 .5-.2239.5-.5s-.2239-.5-.5-.5h-.1744c.1337-.1947.1141-.4631-.059-.6362-.1953-.1952-.5118-.1952-.7071 0l-.6362.6362h-1.7162l1.4943-1.4943c.1952-.1952.1952-.5118 0-.7071-.1953-.1952-.5119-.1952-.7071 0l-1.4943 1.4943v-1.7162l.6362-.6362c.1952-.1953.1952-.5118 0-.7071-.1731-.1731-.4415-.1927-.6362-.059zm-.5 5c.2761 0 .5-.2239.5-.5s-.2239-.5-.5-.5-.5.2239-.5.5.2239.5.5.5z"/></g></svg>