<svg fill="none" height="512" viewBox="0 0 24 24" width="512" xmlns="http://www.w3.org/2000/svg"><g clip-rule="evenodd" fill="rgb(0,0,0)" fill-rule="evenodd"><path d="m12 17.3636c2.9623 0 5.3636-2.4013 5.3636-5.3636 0-2.96225-2.4013-5.36364-5.3636-5.36364-2.96225 0-5.36364 2.40139-5.36364 5.36364 0 2.9623 2.40139 5.3636 5.36364 5.3636zm0 1c3.5145 0 6.3636-2.8491 6.3636-6.3636 0-3.51454-2.8491-6.36364-6.3636-6.36364-3.51454 0-6.36364 2.8491-6.36364 6.36364 0 3.5145 2.8491 6.3636 6.36364 6.3636z"/><path d="m12 1.5c.2761 0 .5.22386.5.5v1.81818c0 .27614-.2239.5-.5.5s-.5-.22386-.5-.5v-1.81818c0-.27614.2239-.5.5-.5z"/><path d="m1.5 12c0-.2761.22386-.5.5-.5h1.81818c.27614 0 .5.2239.5.5s-.22386.5-.5.5h-1.81818c-.27614 0-.5-.2239-.5-.5z"/><path d="m19.6818 12c0-.2761.2239-.5.5-.5h1.8182c.2761 0 .5.2239.5.5s-.2239.5-.5.5h-1.8182c-.2761 0-.5-.2239-.5-.5z"/><path d="m4.57538 19.4246c-.19526-.1952-.19526-.5118 0-.7071l1.28565-1.2856c.19526-.1953.51184-.1953.7071 0 .19527.1952.19527.5118 0 .7071l-1.28564 1.2856c-.19527.1953-.51185.1953-.70711 0z"/><path d="m17.4319 6.56813c-.1953-.19526-.1953-.51184 0-.7071l1.2856-1.28565c.1953-.19526.5119-.19526.7071 0 .1953.19526.1953.51184 0 .70711l-1.2856 1.28564c-.1953.19527-.5119.19527-.7071 0z"/><path d="m4.57538 4.57538c.19526-.19526.51184-.19526.70711 0l1.28564 1.28565c.19527.19526.19527.51184 0 .7071-.19526.19527-.51184.19527-.7071 0l-1.28565-1.28564c-.19526-.19527-.19526-.51185 0-.70711z"/><path d="m17.4319 17.4319c.1952-.1953.5118-.1953.7071 0l1.2856 1.2856c.1953.1953.1953.5119 0 .7071-.1952.1953-.5118.1953-.7071 0l-1.2856-1.2856c-.1953-.1953-.1953-.5119 0-.7071z"/><path d="m12 19.6818c.2761 0 .5.2239.5.5v1.8182c0 .2761-.2239.5-.5.5s-.5-.2239-.5-.5v-1.8182c0-.2761.2239-.5.5-.5z"/><path d="m10.4965 8.20003c.1657.22091.1209.53431-.1.7l-.224.168c-.74703.56029-1.30128 1.33907-1.58589 2.22847l-.11026.3446c-.08416.263-.3656.408-.6286.3239-.26301-.0842-.40799-.3656-.32383-.6286l.11027-.3446c.34785-1.08707 1.02526-2.03897 1.93833-2.72377l.224-.168c.22088-.16569.53428-.12091.69998.1z"/></g></svg>