<svg fill="none" height="512" viewBox="0 0 24 24" width="512" xmlns="http://www.w3.org/2000/svg"><g clip-rule="evenodd" fill="rgb(0,0,0)" fill-rule="evenodd"><path d="m12 3c.2761 0 .5.22386.5.5v1.5c0 .27614-.2239.5-.5.5s-.5-.22386-.5-.5v-1.5c0-.27614.2239-.5.5-.5z"/><path d="m6.64645 5.14645c.19526-.19527.51184-.19527.7071 0l1.06066 1.06066c.19527.19526.19527.51184 0 .7071-.19526.19527-.51184.19527-.7071 0l-1.06066-1.06066c-.19527-.19526-.19527-.51184 0-.7071z"/><path d="m17.3536 5.14645c-.1953-.19527-.5119-.19527-.7072 0l-1.0606 1.06066c-.1953.19526-.1953.51184 0 .7071.1952.19527.5118.19527.7071 0l1.0607-1.06066c.1952-.19526.1952-.51184 0-.7071z"/><path d="m3.5 10.5c0-.2761.22386-.5.5-.5h1.5c.27614 0 .5.2239.5.5s-.22386.5-.5.5h-1.5c-.27614 0-.5-.2239-.5-.5z"/><path d="m18 10.5c0-.2761.2239-.5.5-.5h1.5c.2761 0 .5.2239.5.5s-.2239.5-.5.5h-1.5c-.2761 0-.5-.2239-.5-.5z"/><path d="m16.9999 11.4633c-.0198-2.74452-2.2507-4.9633-4.9999-4.9633-2.76142 0-5 2.23858-5 5 0 .3138.0289.6208.08419.9185-1.33191.1505-2.55078 1.0568-2.97545 2.476-1.4664.1559-2.60874 1.3968-2.60874 2.9045v.14c0 1.6906 1.37044 3.061 3.06097 3.061h14.91463c1.6703 0 3.0244-1.3541 3.0244-3.0244 0-1.4573-.9689-2.7369-2.3716-3.1321l-1.3211-.3721c-.2401-1.3065-.9148-2.3202-1.8074-3.0081zm-8.9999.0367c0-2.20914 1.79086-4 4-4 1.985 0 3.6323 1.4459 3.9461 3.3419-2.2256-.97003-5.1084-.3406-6.41479 2.2275-.44195-.3218-.92521-.5226-1.41658-.6143-.07497-.3061-.11473-.6259-.11473-.9551zm2.3188 2.2411c-.1987.4478-.76332.5967-1.15674.3011l-.18707-.1405c-.10301-.0774-.20929-.1454-.31799-.2044-.40847-.2218-.8512-.3159-1.28372-.2982-1.05913.0433-2.05704.7568-2.3408 1.9079l-.0281.114c-.06617.2684-.30695.457-.58341.457-1.06092 0-1.92097.8601-1.92097 1.921v.14c0 1.1383.92273 2.061 2.06097 2.061h14.91463c1.118 0 2.0244-.9064 2.0244-2.0244 0-1.0095-.6712-1.8958-1.6428-2.1695l-1.504-.4237c-.2672-.0753-.4631-.3008-.5033-.5725-.1283-.8673-.4894-1.5794-.9915-2.1236-.2615-.2835-.5612-.5214-.8862-.7121-1.8756-1.1002-4.592-.6251-5.6534 1.7669z"/></g></svg>