<svg fill="none" height="512" viewBox="0 0 24 24" width="512" xmlns="http://www.w3.org/2000/svg"><g clip-rule="evenodd" fill="rgb(0,0,0)" fill-rule="evenodd"><path d="m12 17.5c3.0376 0 5.5-2.4624 5.5-5.5 0-3.03757-2.4624-5.5-5.5-5.5-3.03756 0-5.49999 2.46243-5.49999 5.5 0 3.0376 2.46243 5.5 5.49999 5.5zm0 1c3.5899 0 6.5-2.9101 6.5-6.5 0-3.58985-2.9101-6.5-6.5-6.5-3.58984 0-6.49999 2.91015-6.49999 6.5 0 3.5899 2.91015 6.5 6.49999 6.5z"/><path d="m11.3047 1.97695c.3877-.37503 1.0029-.37503 1.3906 0l1.9488 1.88529 2.6848-.37974c.5341-.07554 1.0318.28609 1.125.81737l.4685 2.67072 2.3952 1.27085c.4765.25281.6666.83794.4298 1.32253l-1.1909 2.43603 1.1909 2.436c.2368.4846.0467 1.0698-.4298 1.3226l-2.3952 1.2708-.4685 2.6707c-.0932.5313-.5909.8929-1.125.8174l-2.6848-.3797-1.9488 1.8852c-.3877.3751-1.0029.3751-1.3906 0l-1.94881-1.8852-2.68478.3797c-.53407.0755-1.03181-.2861-1.12501-.8174l-.46848-2.6707-2.39524-1.2708c-.47647-.2528-.6666-.838-.42971-1.3226l1.1908-2.436-1.1908-2.43603c-.23689-.48459-.04677-1.06972.42971-1.32253l2.39524-1.27085.46848-2.67072c.0932-.53128.59094-.89291 1.12501-.81737l2.68478.37974zm2.6441 2.60402-1.9488-1.88529-1.9488 1.88529c-.2217.21446-.52995.31462-.83536.27142l-2.68478-.37975-.46848 2.67073c-.05329.3038-.2438.56602-.51627.71058l-2.39524 1.27086 1.1908 2.43599c.13546.2771.13546.6013 0 .8784l-1.1908 2.436 2.39524 1.2708c.27247.1446.46298.4068.51627.7106l.46848 2.6708 2.68478-.3798c.30541-.0432.61366.057.83536.2714l1.9488 1.8853 1.9488-1.8853c.2217-.2144.53-.3146.8354-.2714l2.6848.3798.4684-2.6708c.0533-.3038.2438-.566.5163-.7106l2.3952-1.2708-1.1908-2.436c-.1354-.2771-.1354-.6013 0-.8784l1.1908-2.43599-2.3952-1.27086c-.2725-.14456-.463-.40678-.5163-.71058l-.4684-2.67073-2.6848.37975c-.3054.0432-.6137-.05696-.8354-.27142z"/><path d="m10.4965 8.20003c.1657.22091.1209.53431-.1.7l-.224.168c-.74703.56029-1.30127 1.33907-1.58588 2.22847l-.11027.3446c-.08416.263-.36559.408-.6286.3239-.263-.0842-.40798-.3656-.32382-.6286l.11027-.3446c.34785-1.08707 1.02526-2.03897 1.93833-2.72377l.224-.168c.22087-.16569.53427-.12091.69997.1z"/></g></svg>