<svg fill="none" height="512" viewBox="0 0 24 24" width="512" xmlns="http://www.w3.org/2000/svg"><g clip-rule="evenodd" fill="rgb(0,0,0)" fill-rule="evenodd"><path d="m17.8499 5.40019c-.5807-3.92595-5.9327-4.671011-7.5311-1.06885-.1987.44787-.76332.59672-1.15674.30118l-.18707-.14053c-1.43798-1.08024-3.51204-.34094-3.94251 1.40531l-.0281.11398c-.06617.26842-.30695.45706-.58341.45706-1.06092 0-1.92097.86005-1.92097 1.92097v.14c0 1.13825.92273 2.06099 2.06097 2.06099h14.91463c1.118 0 2.0244-.90638 2.0244-2.02445 0-1.00944-.6712-1.89578-1.6428-2.16949l-1.504-.4237c-.2672-.07527-.4631-.30082-.5033-.57247zm.9574-.33852c-.8502-4.626368-7.1502-5.580908-9.27599-1.40198-1.96072-1.42755-4.7344-.47479-5.42257 1.82514-1.4664.15583-2.60874 1.39675-2.60874 2.90448v.14c0 1.69049 1.37044 3.06099 3.06097 3.06099h14.91463c1.6703 0 3.0244-1.3541 3.0244-3.02445 0-1.45729-.9689-2.73688-2.3716-3.13203z"/><path d="m10.0358 12.8143c.0759-.1898.2598-.3143.4642-.3143h3c.1702 0 .3287.0866.4207.2298.092.1431.1048.3233.034.4781l-1.2764 2.7921h2.8217c.194 0 .3705.1122.4528.2879s.0555.3832-.0687.5322l-5 6c-.1477.1772-.3975.2304-.6046.1287-.2071-.1018-.31764-.332-.2676-.5573l.8648-3.8915h-2.3767c-.16591 0-.32101-.0823-.41403-.2197-.09301-.1374-.11182-.312-.0502-.466zm.8027.6857-1.59998 4h2.26148c.1517 0 .2951.0688.39.1871s.131.2733.0981.4214l-.553 2.4883 2.9974-3.5968h-2.5325c-.1702 0-.3287-.0866-.4207-.2298-.092-.1431-.1048-.3233-.034-.4781l1.2764-2.7921z"/></g></svg>