<svg fill="none" height="512" viewBox="0 0 24 24" width="512" xmlns="http://www.w3.org/2000/svg"><path clip-rule="evenodd" d="m12 1.5c.2761 0 .5.22386.5.5v.84146c4.4183 0 8 3.58172 8 8.00004v1.0752c0 .8583-.98 1.3483-1.6667.8333-.8889-.6667-2.1111-.6667-3 0l-.5666.425c-.3556.2667-.8445.2667-1.2 0l-.5667-.425c-.3034-.2276-.6455-.3774-1-.4496v7.6996c0 1.3807-1.1193 2.5-2.5 2.5-1.38071 0-2.5-1.1193-2.5-2.5v-.1053c0-.2761.22386-.5.5-.5s.5.2239.5.5v.1053c0 .8284.67157 1.5 1.5 1.5.8284 0 1.5-.6716 1.5-1.5v-7.6996c-.3545.0722-.6966.222-1 .4496l-.56667.425c-.35555.2667-.84444.2667-1.2 0l-.56666-.425c-.88889-.6667-2.11111-.6667-3 0-.68671.515-1.66667.025-1.66667-.8333v-1.0752c0-4.41832 3.58172-8.00004 8-8.00004v-.84146c0-.27614.2239-.5.5-.5zm-1.4322 2.40299c-3.42527.45579-6.0678 3.38853-6.0678 6.93851v1.0752c0 .0137.00318.0192.00501.0221.00293.0045.00876.0105.01802.0151.00927.0047.01758.0057.02296.0053.00336-.0002.00969-.001.02068-.0092 1.15771-.8683 2.71932-.9288 3.93333-.1815v-2.30911c0-2.02904.72583-3.99116 2.0463-5.53172.0071-.00831.0143-.01653.0215-.02468zm2.8644 0c.0072.00815.0144.01637.0215.02468 1.3205 1.54056 2.0463 3.50268 2.0463 5.53172v2.30911c1.214-.7473 2.7756-.6868 3.9333.1815.011.0082.0174.009.0207.0092.0054.0004.0137-.0006.023-.0053.0092-.0046.0151-.0106.018-.0151.0018-.0029.005-.0084.005-.0221v-1.0752c0-3.54998-2.6425-6.48272-6.0678-6.93851zm1.0678 8.34701v-2.79061c0-1.79033-.6404-3.52161-1.8056-4.88093-.365-.42586-1.0238-.42586-1.3888 0-1.1652 1.35932-1.8056 3.0906-1.8056 4.88093v2.79061l.4-.3c.6222-.4666 1.3614-.7 2.1-.7s1.4778.2334 2.1.7z" fill="rgb(0,0,0)" fill-rule="evenodd"/></svg>