<svg fill="none" height="512" viewBox="0 0 24 24" width="512" xmlns="http://www.w3.org/2000/svg"><g clip-rule="evenodd" fill="rgb(0,0,0)" fill-rule="evenodd"><path d="m8.5.25c-1.933 0-3.5 1.567-3.5 3.5v9.126c-1.51407 1.0892-2.5 2.8665-2.5 4.874 0 3.3137 2.68629 6 6 6 3.3137 0 6-2.6863 6-6 0-2.0075-.9859-3.7848-2.5-4.874v-9.126c0-1.933-1.567-3.5-3.5-3.5zm0 1c-1.38071 0-2.5 1.11929-2.5 2.5v9.4382c0 .1428-.07681.2737-.19697.3508-.28946.1858-.5585.4006-.80303.6403-.92568.9074-1.5 2.172-1.5 3.5707 0 2.7614 2.23858 5 5 5 2.7614 0 5-2.2386 5-5 0-1.3987-.5743-2.6633-1.5-3.5707-.2445-.2397-.5136-.4545-.803-.6403-.1202-.0771-.197-.208-.197-.3508v-9.4382c0-1.38071-1.11929-2.5-2.5-2.5z"/><path d="m8.16912 16.1066c.15041.2315.08462.5412-.14696.6916l-.11569.0752c-.41111.267-.59591.7739-.45313 1.2428l.03348.11c.08042.2642-.06853.5435-.3327.624-.26418.0804-.54353-.0686-.62395-.3327l-.03348-.11c-.27257-.8953.08022-1.863.86507-2.3728l.11569-.0751c.23158-.1504.54125-.0846.69167.147z"/><path d="m8.02216 16.7982c.23158-.1504.29737-.4601.14696-.6916-.15042-.2316-.46009-.2974-.69167-.147l-.11569.0751c-.78485.5098-1.13764 1.4775-.86507 2.3728l.03348.11c.08042.2641.35977.4131.62395.3327.26417-.0805.41312-.3598.3327-.624l-.03348-.11c-.14278-.4689.04202-.9758.45313-1.2428z"/><path d="m8.5 2.25c-.82843 0-1.5.67157-1.5 1.5v10.2908c-1.46592.5933-2.5 2.0305-2.5 3.7092 0 2.2091 1.79086 4 4 4 2.2091 0 4-1.7909 4-4 0-1.6787-1.0341-3.1159-2.5-3.7092v-10.2908c0-.82843-.67157-1.5-1.5-1.5zm-.5 1.5c0-.27614.22386-.5.5-.5s.5.22386.5.5v.75c-.27614 0-.5.22386-.5.5s.22386.5.5.5v1.5h-1zm.5 17c1.6569 0 3-1.3431 3-3 0-1.1104-.6033-2.0799-1.5-2.5987-.20876-.1207-.43342-.217-.67007-.285-.18778-.054-.32993-.2179-.32993-.4133v-6.453h-1v6.453c0 .1954-.14215.3593-.32993.4133-.23665.068-.46131.1643-.67007.285-.8967.5188-1.5 1.4883-1.5 2.5987 0 1.6569 1.34315 3 3 3zm-.47784-3.9518c.23158-.1504.29737-.4601.14696-.6916-.15042-.2316-.46009-.2974-.69167-.147l-.11569.0751c-.78485.5098-1.13764 1.4775-.86507 2.3728l.03348.11c.08042.2641.35977.4131.62395.3327.26417-.0805.41312-.3598.3327-.624l-.03348-.11c-.14278-.4689.04202-.9758.45313-1.2428z"/><path d="m18 6c.1574 0 .3056.0741.4.2l2.3693 3.15911c.4743.63238.7307 1.40149.7307 2.19199v.0948c0 1.3257-.749 2.5376-1.9348 3.1305-.9853.4927-2.1451.4927-3.1304 0-1.1858-.5929-1.9348-1.8048-1.9348-3.1305v-.0948c0-.7905.2564-1.55961.7307-2.19199l2.3693-3.15911c.0944-.1259.2426-.2.4-.2zm0 1.33333-1.9693 2.62577c-.3445.4593-.5307 1.0179-.5307 1.592v.0948c0 .9469.535 1.8126 1.382 2.2361.7038.3519 1.5322.3519 2.236 0 .847-.4235 1.382-1.2892 1.382-2.2361v-.0948c0-.5741-.1862-1.1327-.5307-1.592z"/><path d="m17.5286 10.06c.2123.1765.2413.4918.0647.7041l-.0413.0497c-.1966.2365-.3158.5277-.3414.8342l-.0072.0856c-.023.2751-.2647.4796-.5399.4566-.2751-.023-.4796-.2647-.4566-.5399l.0072-.0856c.0426-.5108.2413-.9961.569-1.3903l.0413-.0497c.1766-.21228.4918-.24129.7042-.0647z"/></g></svg>