<svg fill="none" height="512" viewBox="0 0 24 24" width="512" xmlns="http://www.w3.org/2000/svg"><g clip-rule="evenodd" fill="rgb(0,0,0)" fill-rule="evenodd"><path d="m5.72154 14.2437c.73344-.1897 1.50759.1 1.94221.7147.56625.8008.40908 1.9169-.37332 2.5205l-.04047.0312c-.41175.3176-.91712.4899-1.43715.4899h-3.31281c-.27614 0-.5-.2239-.5-.5s.22386-.5.5-.5h3.31281c.29901 0 .5896-.0991.82635-.2817l.04047-.0312c.35212-.2716.4286-.7823.16761-1.1514-.19747-.2793-.54872-.4083-.87524-.3238-.22468.0581-.41406.209-.52089.415l-.11834.2283c-.12712.2451-.42889.3408-.67404.2137s-.34083-.4289-.21372-.6741l.11835-.2282c.23753-.4581.65861-.7936 1.15818-.9229zm13.99996 0c.7335-.1897 1.5076.1 1.9423.7147.5662.8008.409 1.9169-.3734 2.5205l-.0404.0312c-.4118.3176-.9172.4899-1.4372.4899h-3.3128c-.2761 0-.5-.2239-.5-.5s.2239-.5.5-.5h3.3128c.299 0 .5896-.0991.8264-.2817l.0404-.0312c.3521-.2716.4286-.7823.1676-1.1514-.1974-.2793-.5487-.4083-.8752-.3238-.2247.0581-.4141.209-.5209.415l-.1183.2283c-.1271.2451-.4289.3408-.6741.2137-.2451-.1271-.3408-.4289-.2137-.6741l.1184-.2282c.2375-.4581.6586-.7936 1.1581-.9229zm-8.1284 2.5795c.8886-.2384 1.8308.111 2.3491.8711l.0444.0651c.67.9827.4701 2.3155-.4586 3.0585l-.0447.0358c-.523.4184-1.1728.6463-1.8425.6463h-6.1408c-.27614 0-.5-.2239-.5-.5s.22386-.5.5-.5h6.1408c.4426 0 .8721-.1507 1.2178-.4272l.0447-.0358c.5206-.4164.6326-1.1635.2571-1.7142l-.0444-.0651c-.2788-.409-.7857-.5969-1.2637-.4687-.3216.0863-.5908.3061-.7397.6039l-.1654.3307c-.1235.247-.4238.3471-.6708.2236s-.34711-.4238-.2236-.6708l.1654-.3307c.2767-.5536.7772-.9622 1.3749-1.1225z"/><path d="m17.8499 6.90019c-.5807-3.92595-5.9327-4.67101-7.5311-1.06885-.1987.44787-.76332.59672-1.15674.30118l-.18707-.14053c-1.43798-1.08024-3.51204-.34094-3.94251 1.40531l-.0281.11398c-.06617.26842-.30695.45706-.58341.45706-1.06092 0-1.92097.86005-1.92097 1.92097v.13999c0 1.1383.92273 2.061 2.06097 2.061h14.91463c1.118 0 2.0244-.9064 2.0244-2.0245 0-1.00939-.6712-1.89573-1.6428-2.16944l-1.504-.4237c-.2672-.07527-.4631-.30082-.5033-.57247zm.9574-.33852c-.8502-4.62637-7.1502-5.580908-9.27599-1.40198-1.96072-1.42755-4.7344-.47479-5.42257 1.82514-1.4664.15583-2.60874 1.39675-2.60874 2.90448v.13999c0 1.6905 1.37044 3.061 3.06097 3.061h14.91463c1.6703 0 3.0244-1.3541 3.0244-3.0245 0-1.45724-.9689-2.73683-2.3716-3.13198z"/></g></svg>