<svg fill="none" height="512" viewBox="0 0 24 24" width="512" xmlns="http://www.w3.org/2000/svg"><g clip-rule="evenodd" fill="rgb(0,0,0)" fill-rule="evenodd"><path d="m7 .25c-1.933 0-3.5 1.567-3.5 3.5v9.126c-1.51407 1.0892-2.5 2.8665-2.5 4.874 0 3.3137 2.68629 6 6 6 3.3137 0 6-2.6863 6-6 0-2.0075-.9859-3.7848-2.5-4.874v-9.126c0-1.933-1.567-3.5-3.5-3.5zm0 1c-1.38071 0-2.5 1.11929-2.5 2.5v9.4382c0 .1428-.07681.2737-.19697.3508-.28946.1858-.5585.4006-.80303.6403-.92568.9074-1.5 2.172-1.5 3.5707 0 2.7614 2.23858 5 5 5s5-2.2386 5-5c0-1.3987-.5743-2.6633-1.5-3.5707-.2445-.2397-.51357-.4545-.80303-.6403-.12016-.0771-.19697-.208-.19697-.3508v-9.4382c0-1.38071-1.11929-2.5-2.5-2.5z"/><path d="m6.66912 16.1066c.15041.2315.08462.5412-.14696.6916l-.11569.0752c-.41111.267-.59591.7739-.45313 1.2428l.03348.11c.08042.2642-.06853.5435-.3327.624-.26418.0804-.54353-.0686-.62395-.3327l-.03348-.11c-.27257-.8953.08022-1.863.86507-2.3728l.11569-.0751c.23158-.1504.54125-.0846.69167.147z"/><path d="m6.52216 16.7982c.23158-.1504.29737-.4601.14696-.6916-.15042-.2316-.46009-.2974-.69167-.147l-.11569.0751c-.78485.5098-1.13764 1.4775-.86507 2.3728l.03348.11c.08042.2641.35977.4131.62395.3327.26417-.0805.41312-.3598.3327-.624l-.03348-.11c-.14278-.4689.04202-.9758.45313-1.2428z"/><path d="m7 2.25c-.82843 0-1.5.67157-1.5 1.5v10.2908c-1.46592.5933-2.5 2.0305-2.5 3.7092 0 2.2091 1.79086 4 4 4s4-1.7909 4-4c0-1.6787-1.03408-3.1159-2.5-3.7092v-10.2908c0-.82843-.67157-1.5-1.5-1.5zm-.5 1.5c0-.27614.22386-.5.5-.5s.5.22386.5.5v.75c-.27614 0-.5.22386-.5.5s.22386.5.5.5v1.5h-1zm.5 17c1.65685 0 3-1.3431 3-3 0-1.1104-.6033-2.0799-1.5-2.5987-.20876-.1207-.43342-.217-.67007-.285-.18778-.054-.32993-.2179-.32993-.4133v-6.453h-1v6.453c0 .1954-.14215.3593-.32993.4133-.23665.068-.46131.1643-.67007.285-.8967.5188-1.5 1.4883-1.5 2.5987 0 1.6569 1.34315 3 3 3zm-.47784-3.9518c.23158-.1504.29737-.4601.14696-.6916-.15042-.2316-.46009-.2974-.69167-.147l-.11569.0751c-.78485.5098-1.13764 1.4775-.86507 2.3728l.03348.11c.08042.2641.35977.4131.62395.3327.26417-.0805.41312-.3598.3327-.624l-.03348-.11c-.14278-.4689.04202-.9758.45313-1.2428z"/><path d="m18.5 5.5c0-.27614-.2239-.5-.5-.5s-.5.22386-.5.5v.17438c-.1947-.13372-.4631-.11404-.6362.05902-.1952.19527-.1952.51185 0 .70711l.6362.63616v1.71622l-1.4943-1.49427c-.1952-.19526-.5118-.19526-.7071 0-.1952.19526-.1952.51185 0 .70711l1.4943 1.49427h-1.7162l-.6362-.63616c-.1953-.19527-.5118-.19527-.7071 0-.1731.17306-.1927.44143-.059.63616h-.1744c-.2761 0-.5.22386-.5.5 0 .2761.2239.5.5.5h.1744c-.1337.1947-.1141.4631.059.6362.1953.1952.5118.1952.7071 0l.6362-.6362h1.7162l-1.4943 1.4943c-.1952.1952-.1952.5118 0 .7071.1953.1952.5119.1952.7071 0l1.4943-1.4943v1.7162l-.6362.6362c-.1952.1953-.1952.5118 0 .7071.1731.1731.4415.1927.6362.059v.1744c0 .2761.2239.5.5.5s.5-.2239.5-.5v-.1744c.1947.1337.4631.1141.6362-.059.1952-.1953.1952-.5118 0-.7071l-.6362-.6362v-1.7162l1.4943 1.4943c.1952.1952.5118.1952.7071 0 .1952-.1953.1952-.5119 0-.7071l-1.4943-1.4943h1.7162l.6362.6362c.1953.1952.5118.1952.7071 0 .1731-.1731.1927-.4415.059-.6362h.1744c.2761 0 .5-.2239.5-.5 0-.27614-.2239-.5-.5-.5h-.1744c.1337-.19473.1141-.4631-.059-.63616-.1953-.19527-.5118-.19527-.7071 0l-.6362.63616h-1.7162l1.4943-1.49427c.1952-.19526.1952-.51185 0-.70711-.1953-.19526-.5119-.19526-.7071 0l-1.4943 1.49427v-1.71622l.6362-.63616c.1952-.19526.1952-.51184 0-.70711-.1731-.17306-.4415-.19274-.6362-.05902zm-.5 5c.2761 0 .5-.2239.5-.5 0-.27614-.2239-.5-.5-.5s-.5.22386-.5.5c0 .2761.2239.5.5.5z"/></g></svg>